/* XPM */
static char *a21f22ccbcb2495191867aabc6d322696N7h9A5W4se1ZYiA[] = {
/* columns rows colors chars-per-pixel */
"18 18 200 2 ",
"   c #5D81AC",
".  c #5C80AC",
"X  c #5578A9",
"o  c #81A2BD",
"O  c #93B4C2",
"+  c #5B7CAB",
"@  c #5A7FAB",
"#  c #5E82AC",
"$  c #5C80AD",
"%  c #5D81AD",
"&  c #577BAA",
"*  c #7FA0BC",
"=  c #96C0BD",
"-  c #92C1BE",
";  c #89AEC6",
":  c #5B7EAB",
">  c #5B80AB",
",  c #5E82AD",
"<  c #5C81AC",
"1  c #577AAA",
"2  c #81A3BD",
"3  c #98C3BE",
"4  c #8BBABA",
"5  c #86BECB",
"6  c #8EC6D3",
"7  c #85A5C2",
"8  c #5A7CAB",
"9  c #5B80AC",
"0  c #5E81AD",
"q  c #5D81AE",
"w  c #587BAB",
"e  c #83A4BD",
"r  c #98C2BD",
"t  c #8AB9BA",
"y  c #88BFCD",
"u  c #88C0D1",
"i  c #7FA6C2",
"p  c #87A5C3",
"a  c #85A5BF",
"s  c #597DAA",
"d  c #5C80AB",
"f  c #587CAB",
"g  c #86A7BE",
"h  c #89BFCE",
"j  c #87C0D0",
"k  c #82A7C3",
"l  c #7F9CC0",
"z  c #85ADBC",
"x  c #97C3BD",
"c  c #85A6BF",
"v  c #587BAA",
"b  c #5A7CAC",
"n  c #87A9BF",
"m  c #97C2BD",
"M  c #8AB9BB",
"N  c #88C0CF",
"B  c #86BFD0",
"V  c #81A7C3",
"C  c #7E9BC0",
"Z  c #88B1BD",
"A  c #91BDB7",
"S  c #89BAC0",
"D  c #90C8D4",
"F  c #82A5C3",
"G  c #587BA9",
"H  c #5B7FAC",
"J  c #89ABBF",
"K  c #96C2BC",
"L  c #89B9BC",
"P  c #87BFCF",
"I  c #81A6C3",
"U  c #7E9CC0",
"Y  c #89B1BD",
"T  c #90BDB7",
"R  c #8BBBC2",
"E  c #88C2D2",
"W  c #82B7CB",
"Q  c #8AAAC6",
"!  c #7E9ABE",
"~  c #5A7DAC",
"^  c #8BACC0",
"/  c #89B8BC",
"(  c #88C1CF",
")  c #86BFCF",
"_  c #81A5C2",
"`  c #7F9CBF",
"'  c #89B2BD",
"]  c #8ABBC3",
"[  c #87C2D2",
"{  c #86B8CB",
"}  c #7F9FC0",
"|  c #7E9FBD",
" . c #96BEC1",
".. c #80A0B9",
"X. c #93B4C3",
"o. c #93C0BA",
"O. c #8AB9BD",
"+. c #88C1D0",
"@. c #86BDCF",
"#. c #80A3C2",
"$. c #7F9DC0",
"%. c #8AB3BC",
"&. c #90BDB8",
"*. c #8ABCC4",
"=. c #809EC0",
"-. c #81A2BF",
";. c #8DB8BB",
":. c #8DBCB8",
">. c #91C1CC",
",. c #7FA3C2",
"<. c #83A4BB",
"1. c #93C1C4",
"2. c #85C0CF",
"3. c #87BCCE",
"4. c #81A3C1",
"5. c #7F9EBF",
"6. c #8BB4BC",
"7. c #89BCC4",
"8. c #85B7CA",
"9. c #81A3C0",
"0. c #8DB9BA",
"q. c #90BDBA",
"w. c #86BBC8",
"e. c #8AC5D4",
"r. c #91B7CD",
"t. c #7FA3C3",
"y. c #90C1D1",
"u. c #7D9FC0",
"i. c #8BB5BC",
"p. c #89BCC5",
"a. c #85B6C9",
"s. c #82A4BF",
"d. c #8FBCBA",
"f. c #85BBC9",
"g. c #8DC7D5",
"h. c #89AFC7",
"j. c #5C7DAB",
"k. c #597CA9",
"l. c #7F9BBE",
"z. c #8AA9C4",
"x. c #88B3BA",
"c. c #89BCC6",
"v. c #87C2D3",
"b. c #85B4C9",
"n. c #82A5BF",
"m. c #8EBABA",
"M. c #8FBCBB",
"N. c #85BCCA",
"B. c #8EC7D5",
"V. c #88AEC7",
"C. c #85A5BD",
"Z. c #97C3BE",
"A. c #86BBC5",
"S. c #88C3D3",
"D. c #85B3C8",
"F. c #83A6BF",
"G. c #8EBBB9",
"H. c #85BBCA",
"J. c #8FC7D5",
"K. c #87ABC5",
"L. c #5A7CAA",
"P. c #5E82AE",
"I. c #597CAA",
"U. c #85A8C2",
"Y. c #8FC7D4",
"T. c #81AFC7",
"R. c #7F9BC0",
"E. c #83A7BF",
"W. c #8EBCBC",
"Q. c #85BBCB",
"!. c #8FC8D5",
"~. c #85A9C4",
"^. c #5A7DAB",
"/. c #86A6C3",
"(. c #86A4C4",
"). c #81A5BD",
"_. c #90BCB9",
"`. c #84BCCB",
"'. c #90C7D5",
"]. c #83A7C3",
"[. c #597BAA",
"{. c #5D80AD",
"}. c #5B7DAB",
"|. c #87A5C1",
" X c #94C1BD",
".X c #8CBABB",
"XX c #85BDCC",
"oX c #587AA9",
"OX c #5C81AD",
"+X c #5C7FAC",
"@X c #8CAEC1",
"#X c #8CC3CF",
"$X c #8EC4D4",
"%X c #80A2C0",
"&X c #5D80AC",
"*X c #5B7DAC",
"=X c #90B7CE",
"-X c #5679A7",
";X c #5D82AD",
":X c white",
/* pixels */
"    .   .     X o O + @ # .   .     ",
"$ $ % $ %   & * = - ; : > , . % $ $ ",
"% % . % < 1 2 3 4 5 6 7 8 9 0 . % % ",
"q % 0 . w e r t y u i p a s . % % % ",
"% , d f g 3 t h j k l z x c v < % % ",
", > b n m M N B V C Z A S D F G % % ",
"H b J K L N P I U Y T R E W Q ! f % ",
"~ ^ K / ( ) _ ` ' T ] [ { } |  ...X ",
"X.o.O.+.@.#.$.%.&.*.[ { =.-.;.:.>.,.",
"<.1.2.3.4.5.6.&.7.[ 8.$.9.0.q.w.e.r.",
"X t.y.u.=.i.&.p.[ a.$.s.0.d.f.g.h.j.",
"% k.l.z.x.&.c.v.b.l n.m.M.N.B.V.j.H ",
"0   f C.Z.A.S.D.` F.G.M.H.J.K.L.9 P.",
"% % . I.U.Y.T.R.E.G.W.Q.!.~.I.9 , % ",
"% % 0 H ^./.(.)._.W.`.'.].[.9 , % % ",
"% {.% , > }.|. X.XXX'._ oX. 0 % OX% ",
"P.% OX% , 9 +X@X#X$X%XoXOX% % &X% P.",
"% P.% % % P.H *X=X_ -X;X0 % % % P.% "
};
